<svg width="600" height="129" viewBox="0 0 600 129" fill="none" xmlns="http://www.w3.org/2000/svg">
<g clip-path="url(#clip0_1131_411)">
<path d="M438.1 115.3H425.4V52.5C431.9 50 438.8 48.6 445.8 48.6C461.1 48.6 471.6 57.3 471.6 72.1C471.6 88.4 461.8 97.5 445.6 97.5H445V86.5C452.9 86.5 458.8 82.1 458.8 72.6C458.8 64.5 453.5 60 445.7 60C443.1 59.9 440.6 60.3 438.1 61.2V115.3ZM591.5 86.4C586.1 86.4 583.3 83.8 583.3 78.5V60.2H599.7V49.9H583.3V32.5H570.7V79.4C570.7 93.2 578.4 97.7 590.6 97.7C593.8 97.7 597.1 97.4 600.3 96.9V85.3C597.4 86 594.5 86.5 591.5 86.4ZM183.5 52.1C179.5 49.7 174.9 48.5 170.2 48.6C156 48.6 145.6 58.3 145.6 73.1C145.6 87.9 155.2 97.4 170.3 97.4C175.1 97.5 179.8 96.3 183.9 93.9V82.2C180.5 84.9 176.4 86.4 172.1 86.4C165 86.9 158.8 81.6 158.3 74.5C158.3 74 158.3 73.5 158.3 73C157.9 66.2 163 60.3 169.9 59.8C170.5 59.8 171.1 59.8 171.6 59.8C176 59.7 180.2 61.2 183.6 64.1V52.1H183.5ZM190.3 96.4H202.8V61.4C205.6 60.4 208.6 60 211.6 60C217 60 219.9 62.7 219.9 68V96.4H232.5V67.2C232.5 53.4 224.4 48.8 214.3 48.8C210.4 48.8 206.5 49.5 202.8 50.8V28.6H190.3V96.4ZM268.9 73.2C268.9 86.7 279.8 97.6 293.3 97.6C306.8 97.6 317.7 86.7 317.7 73.2C317.7 59.7 306.8 48.8 293.3 48.8C279.8 48.7 268.9 59.7 268.9 73.2ZM305 73.2C305 81.6 300.1 86.7 293.3 86.7C286.5 86.7 281.6 81.5 281.6 73.2C281.6 64.9 286.5 59.7 293.3 59.7C300.1 59.7 305 64.7 305 73.2ZM323.6 96.4H336.2V61.4C339 60.5 342 60 345 60C350.4 60 353.3 62.7 353.3 68V96.4H366V67.2C366 53.3 358.3 48.8 346 48.8C338.4 48.9 330.9 50.3 323.7 52.9L323.6 96.4ZM371.1 73.2C371.1 86.7 382 97.6 395.5 97.6C409 97.6 419.9 86.7 419.9 73.2C419.9 59.7 409 48.8 395.5 48.8C382.1 48.7 371.1 59.7 371.1 73.2ZM407.3 73.2C407.3 81.6 402.4 86.7 395.6 86.7C388.8 86.7 383.9 81.5 383.9 73.2C383.9 64.9 388.8 59.7 395.6 59.7C402.4 59.7 407.2 64.7 407.3 73.2ZM259.9 48.8C247.8 48.8 239.9 53.3 239.9 67.2V96.5H252.6V68.1C252.6 62.9 255.4 60.1 260.9 60.1C263.9 60.1 266.8 60.5 269.7 61.3V49.5C266.4 49 263.1 48.7 259.9 48.8ZM530.6 93.2C535.2 95.8 540.5 97.1 545.8 97C556.7 97 564.3 92.4 564.3 82.2C564.3 73.8 560.2 69.3 548.2 67C543.8 65.9 542.1 64.7 542.1 62.3C542.1 59.9 543.9 58.3 548.1 58.3C552.9 58.4 557.5 60 561.4 62.8V51.6C557.2 49.2 552.5 48 547.7 48.1C537.7 48.1 529.9 52.8 529.9 63.1C529.9 71.6 534.3 75.8 544.9 77.7C550.1 78.8 552 79.9 552 82.7C552 85.5 549.4 86.8 545.5 86.8C540.1 86.6 535 84.8 530.6 81.6V93.2ZM477.1 73.1C477.1 86.6 488 97.5 501.5 97.5C515 97.5 525.9 86.6 525.9 73.1C525.9 59.6 515 48.7 501.5 48.7C488 48.7 477.1 59.6 477.1 73.1ZM513.2 73.1C513.2 81.5 508.3 86.6 501.5 86.6C494.7 86.6 489.8 81.4 489.8 73.1C489.8 64.8 494.7 59.6 501.5 59.6C508.3 59.6 513.2 64.7 513.2 73.1Z" fill="#3C3C3B"/>
<path d="M77.1992 58.1C76.5992 58.4 75.8992 58.4 75.2992 58.1L72.2992 56.3C71.9992 56.1 71.7992 55.9 71.6992 55.6C71.4992 55.3 71.3992 55 71.3992 54.6V51.1C71.3992 50.5 71.6992 49.9 72.2992 49.5L108.399 28.5L57.6992 0.900012C56.3992 0.300012 54.8992 0.300012 53.5992 0.900012L2.99922 28.4L59.5992 61.4C60.1992 61.7 60.4992 62.3 60.4992 63V111.1C60.4992 111.8 60.0992 112.3 59.4992 112.7L56.4992 114.4C56.1992 114.5 55.8992 114.6 55.5992 114.6C55.2992 114.6 54.8992 114.5 54.5992 114.4L51.5992 112.7C50.9992 112.4 50.6992 111.8 50.5992 111.1V68.2C50.5992 67.9 50.3992 67.5 50.0992 67.3L0.199219 38.3V95.1C0.299219 96.5 0.999219 97.8 2.19922 98.6L53.5992 129C54.8992 129.6 56.2992 129.6 57.5992 129L108.999 98.7C110.199 97.9 110.899 96.6 110.999 95.2V38.4L77.1992 58.1Z" fill="url(#paint0_linear_1131_411)"/>
</g>
<defs>
<linearGradient id="paint0_linear_1131_411" x1="0.763918" y1="109.988" x2="56.8276" y2="62.9331" gradientUnits="userSpaceOnUse">
<stop stop-color="#0067AA"/>
<stop offset="0.35" stop-color="#0082C1"/>
<stop offset="0.75" stop-color="#009AD5"/>
<stop offset="1" stop-color="#00A3DD"/>
</linearGradient>
<clipPath id="clip0_1131_411">
<rect width="600" height="129" fill="white"/>
</clipPath>
</defs>
</svg>
