<!DOCTYPE svg PUBLIC "-//W3C//DTD SVG 1.1//EN" "http://www.w3.org/Graphics/SVG/1.1/DTD/svg11.dtd">
<!-- Uploaded to: SVG Repo, www.svgrepo.com, Transformed by: SVG Repo Mixer Tools -->
<svg width="800px" height="800px" viewBox="0 0 48 48" xmlns="http://www.w3.org/2000/svg" fill="#f03333">
<g id="SVGRepo_bgCarrier" stroke-width="0"/>
<g id="SVGRepo_tracerCarrier" stroke-linecap="round" stroke-linejoin="round"/>
<g id="SVGRepo_iconCarrier"> <path d="M0 0h48v48H0z" fill="none"/> <g id="Shopicon"> <rect x="18" y="20" width="4" height="16"/> <rect x="26" y="20" width="4" height="16"/> <path d="M42,12h-8V8c0-2.2-1.8-4-4-4H18c-2.2,0-4,1.8-4,4v4H6v4h4v24c0,2.2,1.8,4,4,4h20c2.2,0,4-1.8,4-4V16h4V12z M18,8h12v4H18V8 z M34,40H14V16h4h12h4V40z"/> </g> </g>
</svg>