<svg id="Layer_1" data-name="Layer 1" xmlns="http://www.w3.org/2000/svg" viewBox="0 0 512.02 512"><path d="M467,523H50c-19.85-7.51-25-15.08-25-36.73V211c-7.79,0-15.85,1.63-20-7V116a9.69,9.69,0,0,0,.68-1.32C11.11,98,20.7,91,38.19,91H90.47c.9-7.93,1.2-15.13,2.6-22.12C98.39,42.18,107.66,18.35,138,11h14c14.43,2.85,25.3,11.9,36.39,20.66,12.54,9.91,25.34,19.48,37.85,29.42,2.73,2.16,4.44,2.16,7.32.24A49.23,49.23,0,0,1,246,55.16c24.06-7.54,46.91-5.52,68.12,9.79,15.19-11.75,30.53-23.44,45.68-35.37C370.19,21.42,380.6,13.49,394,11h14c14.56,3.36,25.47,11.63,32.94,24.51a97.59,97.59,0,0,1,12,36.21c.87,6.33,1.3,12.73,1.94,19.29,11.11,0,21.76-.16,32.4,0a28.77,28.77,0,0,1,25,14c2.07,3.33,3.19,7.25,4.74,10.9v88c-4.14,8.87-12.64,6.65-20,7.13v6.64q0,136,.09,271.91c0,11.94-5.07,20.54-14.77,26.51C477.61,519.09,472.13,520.76,467,523ZM168.89,258.54c-14.45,3.9-28.1,7.58-41.75,11.24-7,1.86-11.1.9-13.94-3.16-3-4.24-2.42-8.22,2-14.12l23.23-31.31,7.25-9.83H45V490.65C45,499.48,48.57,503,57.53,503H230.64V244c-5.32,10.53-10,19.86-14.75,29.19l-16,31.63c-2.07,4.08-5.38,6.48-10,6.05-4.81-.46-7.84-3.3-9-8.05-.57-2.26-1.24-4.49-1.84-6.74C175.66,283.72,172.35,271.39,168.89,258.54Zm142.46-14.43V503H459.1a29.08,29.08,0,0,0,3.49-.12c9.73-1.18,14.41-6.39,14.41-16V211.36H397.2c.72,1.14,1.12,1.84,1.59,2.49q14.67,20.22,29.37,40.43c3,4.07,3.5,8.35.46,12.48-2.86,3.89-6.82,4.91-11.55,3.56-7.19-2.07-14.45-3.91-21.69-5.83s-14.66-3.86-22.34-5.87c-3.87,14.54-7.64,28.49-11.3,42.47-1.31,5.06-3.67,9.1-9.31,9.72s-8.79-2.82-11.13-7.51q-12.27-24.57-24.72-49C315,251.21,313.45,248.18,311.35,244.11ZM291,502.77v-6.35c0-89.81-.29-179.62.27-269.43.1-16.15-2.08-30.83-10.84-44.51-3.52-5.49-6-11.63-9.43-18.37-6.28,12.4-12.17,23.72-17.73,35.21a21.56,21.56,0,0,0-2.18,9q-.17,144.45-.09,288.92v5.56ZM329.38,111l-.55,1.74a24.56,24.56,0,0,0,2.8,2.27c17.78,10.46,35.45,21.11,53.41,31.24,17.24,9.73,32.39,5.39,40.53-12.61,12.74-28.18,12.5-57-.44-85-9.06-19.61-26.87-23.16-44.05-10-15.74,12-31.36,24.2-47,36.32C326.26,81,326.26,81,329.5,90.34c0,.14.24.22.86.74,9.63,0,19.76-.07,29.89,0,6.39.07,10.78,4.31,10.74,10s-4.44,9.79-10.89,9.91c-5,.09-10,0-15,0ZM216.69,78.87c-17.86-13.81-35.53-27.69-53.43-41.26-15.52-11.76-32.68-7.91-42.13,9.14a58,58,0,0,0-3.2,6.76C112,68.34,110.24,83.82,111.3,99.6c.92,13.56,3.69,26.71,11,38.48,5.83,9.33,14.15,14.24,25.17,12.66a41,41,0,0,0,13.93-5c16.37-9.26,32.52-18.9,48.65-28.57,1.34-.81,1.93-2.87,2.87-4.35-1.52-.6-3-1.68-4.54-1.71-9.16-.17-18.33,0-27.49-.16a9.84,9.84,0,0,1-9.89-9.77v-.12a10,10,0,0,1,9.75-10c2.49-.16,5,0,7.49,0h23.89C213.79,86.66,215.12,83.09,216.69,78.87Zm-29.07,75.87-.62-.5c-7.4,4.09-14.58,8.63-22.23,12.18C144,176.08,121.72,171,108.6,152.9c-4.9-6.74-8.34-14.71-11.51-22.49-2.47-6.07-3.49-12.73-5.23-19.42H37.48C28.54,111,25,114.49,25,123.35v63.43c0,1.28.15,2.56.22,3.7a5.36,5.36,0,0,0,1.24.43H158.31a5.92,5.92,0,0,0,4-2.15C170.85,177.48,179.21,166.09,187.62,154.74Zm265.67-43.65c-.46,2.26-.85,4.2-1.24,6.14-2.5,12.7-6.7,24.7-14.5,35.21-9.28,12.5-21.68,18.74-37.3,18.59-10.14-.11-19.15-3.67-27.71-8.77-5.87-3.5-11.8-6.9-17.69-10.36,7.89,12.39,16.38,23.9,24.65,35.58a7.48,7.48,0,0,0,6.93,3.59q52.95-.12,105.88-.08c1.45,0,2.89-.16,4.62-.27,0-23.75.1-47.19-.08-70.63a9,9,0,0,0-8.62-8.89C476.61,110.89,465,111.09,453.29,111.09ZM348.47,273c2.53-9.46,4.68-17.59,6.87-25.7,2.75-10.15,6.67-12.4,16.71-9.73,7.47,2,14.95,3.92,23.78,6.23l-79-108.66c-4.86,3.09-9.25,6.43-14.11,8.84s-10.42,4-16.26,6.21C306.94,190.79,327.41,231.33,348.47,273ZM225.8,136.84,147.47,242.52c9.06-1.38,17.37-3.68,25.74-5.71,6-1.44,10.53,1.23,12.46,7,.64,1.89,1,3.86,1.53,5.79,2,7.35,4,14.69,6.39,23.32l61.59-122ZM271.07,131c9.62-.16,18.87-1.81,27-7.35,16.62-11.3,16.64-33.93.11-45.36-14.27-9.86-40.23-9.8-54.5.12-16.46,11.44-16.32,34.2.31,45.37C252.18,129.29,261.44,130.87,271.07,131Z" transform="translate(-5 -10.99)"/><path d="M85,440.3v30.93C85,478.42,81,483,74.93,483S65,478.36,65,471.1V408.74C65,401.55,69,397,75.06,397S85,401.62,85,408.87Z" transform="translate(-5 -10.99)"/><path d="M85,367a10,10,0,1,1-10-10h.31A10.07,10.07,0,0,1,85,367Z" transform="translate(-5 -10.99)"/></svg>