<svg xmlns="http://www.w3.org/2000/svg" width="30" height="16" viewBox="0 0 30 16">
  <g id="klarna" transform="translate(0.163 -0.431)">
    <rect id="Rectangle_938" data-name="Rectangle 938" width="30" height="16" rx="4.321" transform="translate(-0.163 0.431)" fill="#ffb3c7"/>
    <path id="Tracé_382" data-name="Tracé 382" d="M28.772,12.582a.716.716,0,1,0,.506.212.716.716,0,0,0-.506-.212Zm-2.349-.556a1.031,1.031,0,1,0-1.03.986,1.009,1.009,0,0,0,1.03-.986Zm0-1.917h1.137v3.833H26.427V13.7a1.982,1.982,0,0,1-1.128.351A2.022,2.022,0,0,1,25.3,10a1.978,1.978,0,0,1,1.128.351Zm-9.1.5v-.5H16.162v3.832h1.167v-1.79c0-.6.648-.928,1.1-.928h.013V10.109A1.413,1.413,0,0,0,17.326,10.608Zm-2.9,1.417a1.031,1.031,0,1,0-1.03.986,1.009,1.009,0,0,0,1.03-.986Zm0-1.917h1.138v3.833H14.43V13.7a1.983,1.983,0,0,1-1.128.351A2.022,2.022,0,0,1,13.3,10a1.978,1.978,0,0,1,1.128.351Zm6.845-.1a1.378,1.378,0,0,0-1.172.534v-.431H18.971v3.832h1.146V11.928a.8.8,0,0,1,.854-.868c.5,0,.787.3.787.86v2.022h1.136V11.5a1.51,1.51,0,0,0-1.619-1.5ZM9.642,13.942h1.19V8.4H9.642Zm-5.229,0H5.674V8.4H4.414ZM8.823,8.4a4.428,4.428,0,0,1-1.29,3.146l1.742,2.4H7.719l-1.893-2.6.489-.37A3.192,3.192,0,0,0,7.588,8.4H8.821Z" transform="translate(-1.916 -3.328)" fill="#0a0b09"/>
  </g>
</svg>
