<svg xmlns="http://www.w3.org/2000/svg" xmlns:xlink="http://www.w3.org/1999/xlink" width="94" height="46" viewBox="0 0 94 46">
  <defs>
    <clipPath id="clip-path">
      <rect id="Rectangle_1457" data-name="Rectangle 1457" width="94" height="46" rx="10" transform="translate(1046 2909)" fill="#fff" stroke="#d1d1d1" stroke-width="1"/>
    </clipPath>
    <linearGradient id="linear-gradient" x1="0.004" y1="0.757" x2="0.978" y2="0.238" gradientUnits="objectBoundingBox">
      <stop offset="0" stop-color="#f37021"/>
      <stop offset="0.168" stop-color="#f47421"/>
      <stop offset="0.387" stop-color="#f58022"/>
      <stop offset="0.636" stop-color="#f79323"/>
      <stop offset="0.903" stop-color="#fbad26"/>
      <stop offset="1" stop-color="#fdb927"/>
    </linearGradient>
  </defs>
  <g id="Group_4776" data-name="Group 4776" transform="translate(-1046 -2909)">
    <g id="Mask_Group_10" data-name="Mask Group 10" clip-path="url(#clip-path)">
      <g id="colissimo.e07e672" transform="translate(1062.623 2924.203)">
        <path id="Path_17770" data-name="Path 17770" d="M7.218,7.444,1.092,10.826l6.867,3.893a.232.232,0,0,1,.112.191v5.848a.231.231,0,0,1-.114.191l-.367.2a.236.236,0,0,1-.11.026H7.472a.239.239,0,0,1-.117-.024l-.367-.205a.233.233,0,0,1-.112-.191V15.543a.146.146,0,0,0-.06-.1L.759,12.007.754,18.841A.542.542,0,0,0,1,19.263l6.237,3.66a.519.519,0,0,0,.481,0l6.153-3.665a.549.549,0,0,0,.24-.423v-6.9l-4.1,2.463a.224.224,0,0,1-.108.027h0a.212.212,0,0,1-.115-.031l-.357-.222a.25.25,0,0,1-.108-.195v-.423a.239.239,0,0,1,.112-.191h0a.187.187,0,0,1,.051-.049l4.213-2.534L7.711,7.447a.525.525,0,0,0-.244-.057.512.512,0,0,0-.244.055" transform="translate(-0.754 -7.389)" fill="url(#linear-gradient)"/>
        <path id="Path_17771" data-name="Path 17771" d="M1190.672,155.057h-.005a.828.828,0,0,1-.828-.933v-5.894h-1.5v5.99c0,1.633.915,2.168,2.332,2.175Z" transform="translate(-1159.451 -144.795)" fill="#414042"/>
        <path id="Path_17772" data-name="Path 17772" d="M724.185,163.138a2.851,2.851,0,0,0-1.586-.414,2.8,2.8,0,0,0-2.936,2.939,2.75,2.75,0,0,0,2.949,2.914,3.09,3.09,0,0,0,1.624-.414v-1.419a2.253,2.253,0,0,1-1.413.5,1.533,1.533,0,0,1-1.65-1.608,1.482,1.482,0,0,1,1.588-1.581,2.12,2.12,0,0,1,1.423.515Zm3.355-.414a2.924,2.924,0,1,0,2.924,2.924,2.808,2.808,0,0,0-2.924-2.924m0,4.544a1.637,1.637,0,1,1,1.4-1.619,1.435,1.435,0,0,1-1.4,1.619m8.95.792a3.523,3.523,0,0,0,1.811.452c1.3,0,2.211-.553,2.211-1.77,0-1-.487-1.557-1.924-1.822-.525-.125-.724-.276-.724-.564,0-.263.212-.476.711-.476a2.737,2.737,0,0,1,1.586.54v-1.343a3.115,3.115,0,0,0-1.637-.414c-1.2,0-2.124.564-2.124,1.8,0,1.017.525,1.518,1.785,1.746.613.125.85.263.85.6s-.313.487-.774.487a3.219,3.219,0,0,1-1.774-.627v1.39Zm-2.429.39h1.5v-5.613h-1.5Zm.752-7.855a.755.755,0,1,0,.752.755.755.755,0,0,0-.752-.755m25.085,2.129a2.924,2.924,0,1,0,2.924,2.924,2.809,2.809,0,0,0-2.924-2.924m0,4.544a1.637,1.637,0,1,1,1.4-1.619,1.434,1.434,0,0,1-1.4,1.619m-18.881.792a3.522,3.522,0,0,0,1.811.452c1.3,0,2.211-.553,2.211-1.77,0-1-.487-1.557-1.924-1.822-.525-.125-.724-.276-.724-.564,0-.263.212-.476.713-.476a2.737,2.737,0,0,1,1.586.54v-1.344a3.114,3.114,0,0,0-1.637-.414c-1.2,0-2.124.564-2.124,1.8,0,1.017.525,1.518,1.786,1.746.613.125.85.263.85.6s-.313.487-.774.487a3.216,3.216,0,0,1-1.774-.627Zm4.666.39h1.5v-5.613h-1.5Zm.753-7.855a.755.755,0,1,0,.752.755.755.755,0,0,0-.752-.755m8.427,4.353c0-.59-.261-.891-.849-.891a2.512,2.512,0,0,0-1.048.213,1.52,1.52,0,0,1,.112.577v3.6h-1.511v-3.5c0-.59-.274-.891-.849-.891a3.114,3.114,0,0,0-.937.138v4.254h-1.5v-5.232a7.184,7.184,0,0,1,2.51-.487,2.469,2.469,0,0,1,1.536.439,4.307,4.307,0,0,1,1.886-.439c1.325,0,2.16.515,2.16,2.158v3.562h-1.511v-3.5Z" transform="translate(-702.07 -156.879)" fill="#414042"/>
      </g>
    </g>
    <g id="Rectangle_1467" data-name="Rectangle 1467" transform="translate(1046 2909)" fill="none" stroke="#d1d1d1" stroke-width="1">
      <rect width="94" height="46" rx="10" stroke="none"/>
      <rect x="0.5" y="0.5" width="93" height="45" rx="9.5" fill="none"/>
    </g>
  </g>
</svg>
