<svg id="mastercard-logo" xmlns="http://www.w3.org/2000/svg" width="31.788" height="24.687" viewBox="0 0 31.788 24.687">
  <path id="XMLID_1775_" d="M53.977,662.958V661.32a.961.961,0,0,0-1.037-1.037,1.074,1.074,0,0,0-.929.464.958.958,0,0,0-.875-.464.88.88,0,0,0-.764.382v-.328H49.8v2.621h.573v-1.448c0-.464.245-.684.627-.684s.573.245.573.684v1.448h.573v-1.448a.605.605,0,0,1,.627-.684c.382,0,.573.245.573.684v1.448Zm8.494-2.621h-.929v-.792H60.97v.792h-.519v.519h.519v1.2c0,.6.245.954.9.954a1.54,1.54,0,0,0,.709-.191l-.165-.493a.916.916,0,0,1-.493.137c-.274,0-.382-.165-.382-.436v-1.174h.929v-.519Zm4.861-.057a.776.776,0,0,0-.684.382v-.328h-.573v2.621h.573v-1.476c0-.436.191-.684.547-.684a1.762,1.762,0,0,1,.356.054l.165-.547a2.269,2.269,0,0,0-.385-.022Zm-7.346.274a1.879,1.879,0,0,0-1.066-.274c-.655,0-1.091.328-1.091.846,0,.436.328.684.9.763l.274.029c.3.054.464.137.464.274,0,.191-.22.328-.6.328a1.509,1.509,0,0,1-.875-.274l-.274.436a1.92,1.92,0,0,0,1.12.328c.764,0,1.2-.356,1.2-.846,0-.465-.356-.709-.9-.792l-.274-.029c-.245-.029-.436-.083-.436-.245,0-.191.191-.3.493-.3a1.972,1.972,0,0,1,.821.219l.242-.464Zm15.235-.274a.776.776,0,0,0-.684.382v-.328h-.573v2.621h.573v-1.476c0-.436.191-.684.547-.684a1.762,1.762,0,0,1,.356.054l.165-.541a1.742,1.742,0,0,0-.385-.029Zm-7.317,1.368a1.312,1.312,0,0,0,1.393,1.365,1.372,1.372,0,0,0,.929-.3l-.274-.464a1.094,1.094,0,0,1-.684.245.775.775,0,0,1-.792-.846.8.8,0,0,1,.792-.846,1.12,1.12,0,0,1,.684.245l.274-.465a1.356,1.356,0,0,0-.929-.3,1.31,1.31,0,0,0-1.393,1.365Zm5.3,0v-1.311h-.573v.328a.989.989,0,0,0-.821-.382,1.366,1.366,0,0,0,0,2.73.926.926,0,0,0,.821-.382v.328H73.2v-1.311Zm-2.1,0a.794.794,0,1,1,1.584,0,.794.794,0,1,1-1.584,0Zm-6.853-1.368a1.365,1.365,0,0,0,.029,2.73,1.664,1.664,0,0,0,1.066-.356l-.274-.41a1.3,1.3,0,0,1-.764.274.738.738,0,0,1-.792-.627h1.937v-.219a1.209,1.209,0,0,0-1.2-1.39Zm0,.493a.638.638,0,0,1,.655.627H63.537a.69.69,0,0,1,.709-.627Zm14.227.875V659.3H77.9v1.365a.989.989,0,0,0-.821-.382,1.366,1.366,0,0,0,0,2.73.926.926,0,0,0,.821-.382v.328h.573v-1.311Zm-2.1,0a.794.794,0,1,1,1.584,0,.794.794,0,1,1-1.584,0Zm-19.171,0v-1.311h-.573v.328a.989.989,0,0,0-.821-.382,1.366,1.366,0,0,0,0,2.73.926.926,0,0,0,.821-.382v.328H57.2v-1.311Zm-2.128,0a.794.794,0,1,1,1.584,0,.794.794,0,1,1-1.584,0Z" transform="translate(-48.216 -638.325)"/>
  <g id="Groupe_80" data-name="Groupe 80">
    <rect id="rect19" width="8.602" height="15.455" transform="translate(11.58 2.103)" fill="#ff5a00"/>
    <path id="XMLID_330_" d="M12.153,9.83A9.858,9.858,0,0,1,15.894,2.1,9.827,9.827,0,1,0,9.83,19.661a9.778,9.778,0,0,0,6.064-2.1A9.811,9.811,0,0,1,12.153,9.83Z" fill="#eb001b"/>
    <path id="path22" d="M515.494,9.83A9.821,9.821,0,0,1,499.6,17.558a9.851,9.851,0,0,0,0-15.455A9.821,9.821,0,0,1,515.494,9.83Z" transform="translate(-483.706)" fill="#f79e1b"/>
  </g>
</svg>
