<svg id="Layer_1" data-name="Layer 1" xmlns="http://www.w3.org/2000/svg" viewBox="0 0 387 369.2"><path d="M385.5,241.1a16.7,16.7,0,0,0-.8,2,22.7,22.7,0,0,1-22,16.6q-9.7.2-19.5,0a4.6,4.6,0,0,0-4.8,2.6A140.5,140.5,0,0,1,308,297.6a8.8,8.8,0,0,0-2.7,5.2c-1.4,13.4-2.5,26.9-3.8,40.3s-12.3,23.5-26.2,24.5-25.1-8.2-28.5-21.4c-1.3-5.1-2.3-10.4-3.6-16a188.5,188.5,0,0,1-91.1,0c-1.2,5.2-2.4,10-3.5,14.8-3.4,14.2-15.1,23.5-28.6,22.6s-25-11.3-26.4-26.2c-1.2-13.1-2.2-26.2-3.7-39.2-.2-2-2-4.1-3.7-5.5C68.5,281.4,54.6,263.3,46.9,241c-3.7-10.7-5.6-22.1-8.4-33.4-3.3,0-7.5.5-11.6-.1-13.1-1.9-21.6-10-24.7-22.8-.2-.7-.5-1.4-.7-2.1v-9.8c1.3-3.5,2.3-7,3.9-10.4s5.3-5.1,8.6-3.6,3.9,5,2.4,9.1-2.3,6.4-2.5,9.7a17.4,17.4,0,0,0,24,16.8c1.1-.4,2.1-2.6,2.2-4A115.2,115.2,0,0,1,52,148.9c16.5-32.3,42.5-54.1,75.3-68.3,4.5-1.9,9-3.6,13.4-5.3-5-27.6,2.9-50,26.9-64.7,21.2-12.9,43.2-12,63.5,2.2s28.3,36.5,23.4,62.3l2.4,1.1c9.3,4.2,18.7,8.2,27.9,12.6,2.1,1,3.6,1.3,5.7-.1a57.7,57.7,0,0,1,34.8-9.6c9.5.3,14.6,5.4,15.2,14.9.8,12.1-2.7,23.5-6.3,34.8a5.9,5.9,0,0,0,.3,4.7,126,126,0,0,1,19,45.4h7.8c12.3,0,20.1,5.9,23.6,17.8a4.7,4.7,0,0,0,.6.9ZM155.2,101c-1.7-2.1-3.1-3.8-4.4-5.6a41.7,41.7,0,0,1-3.7-5.6c-1.1-2.3-2.3-2.7-4.7-1.8C116,97.3,93.2,111.8,76,134.1c-24.1,31.1-30.7,65.6-17.4,103,7.5,21.3,21.1,38.4,38.6,52.4a11.7,11.7,0,0,1,5,9.1c1,13.9,2.4,27.9,3.6,41.8.8,8.1,6.5,14.1,14,14.7s14.7-4.2,16.7-12.5l4.5-19.7c1.3-5.9,4-7.6,9.6-6a173,173,0,0,0,94.4-.1c5.1-1.4,8,.4,9.2,5.7s3,13.4,4.6,20.1,8.2,13,16.2,12.5,13.7-6.5,14.4-14.7c1.3-14.1,2.6-28.1,3.7-42.2a10.8,10.8,0,0,1,4.3-8.2,121.4,121.4,0,0,0,32.7-38.2c1.8-3.4,4.4-4.7,8.2-4.7q12.1.3,24.3,0c6,0,10.2-3.7,10.4-9.6q.3-18.1,0-36.3c-.1-6-4.3-9.6-10.2-9.8H350c-5.3-.1-7.2-1.6-8.1-6.8a107,107,0,0,0-19.4-46.2c-2.6-3.6-2.5-6.7-1.3-10.8a269.7,269.7,0,0,0,6.9-27.5c1.6-8-.4-9.6-8.4-8.8a50.1,50.1,0,0,0-26.2,10.3c-3.6,2.8-6.6,2.5-10.6.4-10-5-20.2-9.5-30.5-14.1-.8-.4-2.7-.3-3.1.3-3.1,4.2-5.9,8.5-8.9,12.9,4.7,1.7,9.6,3.3,14.3,5.2s5.2,4.7,4,8.1-4.5,4.7-8.4,3.4-4.8-1.9-7.3-2.7c-32.6-10.5-64.9-9.9-96.9,2.3-4.7,1.7-8.1.7-9.5-2.9s.3-6.8,4.9-8.6S150.4,102.7,155.2,101Zm42.3-86.7a82,82,0,0,0-8.5,1c-18.7,4.3-31.2,15.5-36,34.1s1.2,34.2,15.6,46.7a5.4,5.4,0,0,0,4.3,1.1,160.9,160.9,0,0,1,48.5.1,7.1,7.1,0,0,0,6.3-1.9,46,46,0,0,0,13.2-50.8A46.8,46.8,0,0,0,197.5,14.3Z" transform="translate(0 0.1)"/><path d="M121.9,369.2h-2c-15.4-1.1-26.3-11.9-27.8-27.6l-.9-10.6c-.9-9.4-1.7-19-2.8-28.5a9.1,9.1,0,0,0-3.1-4.6c-19.5-16.7-32.5-35.1-39.8-56.3a180.7,180.7,0,0,1-6-23c-.7-3-1.4-6.2-2.2-9.4H35.4a51.3,51.3,0,0,1-8.7-.2C13.2,207,4,198.5.8,185a6.1,6.1,0,0,0-.5-1.2,1.4,1.4,0,0,0-.2-.7.9.9,0,0,1-.1-.5v-9.8a1.1,1.1,0,0,1,.1-.5c.4-1,.7-2.1,1.1-3.2A72.8,72.8,0,0,1,4,161.8a8.2,8.2,0,0,1,4.8-4.7,7.4,7.4,0,0,1,5.8.4c3.9,1.9,5.1,6,3.2,10.9-1,2.9-2.2,6.1-2.4,9.2A15.8,15.8,0,0,0,22,191.3,16,16,0,0,0,37.3,193a4.6,4.6,0,0,0,1.3-2.8,117.8,117.8,0,0,1,12.1-42c15.8-31,40.6-53.6,76-69l9.3-3.7,3.1-1.2c-5-28.8,4.4-50.7,27.8-65C188.5-3.9,211-3.1,232,11.6s28.9,35.7,24.2,62.6l1.3.6,7.5,3.3c6.7,3,13.7,6.1,20.5,9.4,1.8.8,2.6.9,4.2-.1a60,60,0,0,1,35.6-9.8c10.3.4,16.1,6,16.7,16.3.8,12.8-3,24.8-6.4,35.4a4.9,4.9,0,0,0,.1,3.4,125.2,125.2,0,0,1,19,44.7h6.6c12.9,0,21.3,6.4,25.1,18.8,0,.1.1.1.1.2l.3.4a1.9,1.9,0,0,1,.2.8v43.5a1.3,1.3,0,0,1-.1.6l-.3.6a11.2,11.2,0,0,0-.5,1.3,24.3,24.3,0,0,1-23.4,17.6c-7.2.1-13.6.1-19.6,0a3.2,3.2,0,0,0-3.4,1.8c-7.7,13-17.8,24.7-30.8,35.7a7.3,7.3,0,0,0-2.1,4.3c-.8,7.3-1.5,14.8-2.1,22s-1.1,12.2-1.7,18.3c-1.5,14.1-12.8,24.7-27.6,25.8s-26.5-8.7-30-22.5c-.9-3.5-1.7-7.1-2.5-10.8L242,332a190.4,190.4,0,0,1-88.8,0l-.8,3.4c-.8,3.4-1.6,6.7-2.3,10C146.7,359.6,135.2,369.2,121.9,369.2ZM38.5,206.1a1.4,1.4,0,0,1,1.4,1.1c.9,3.6,1.7,7.2,2.5,10.7a203.9,203.9,0,0,0,5.9,22.7c7.1,20.6,19.9,38.6,38.9,54.9.9.8,3.8,3.5,4.2,6.5,1.1,9.5,1.9,19.3,2.8,28.6l.9,10.6c1.3,14.2,11.2,24,25,24.9s23.8-7.9,27-21.4l2.4-10,1.1-4.9a1.6,1.6,0,0,1,.7-.9,1.4,1.4,0,0,1,1.1-.2,186.8,186.8,0,0,0,90.4,0,1.7,1.7,0,0,1,1.2.2,1.7,1.7,0,0,1,.6,1l1.2,5.2c.8,3.8,1.6,7.3,2.5,10.8,3.1,12.4,14.7,21.1,26.9,20.2S298.7,355.6,300,343c.6-6.1,1.1-12.3,1.7-18.2s1.3-14.8,2.1-22.1a10.4,10.4,0,0,1,3.2-6.3c12.7-10.7,22.6-22.2,30.1-34.9a6.1,6.1,0,0,1,6.1-3.3c6,.1,12.3.1,19.4,0,10-.2,17.7-6,20.6-15.5a7.7,7.7,0,0,1,.7-1.6v-43a3.1,3.1,0,0,1-.5-1c-3.4-11.2-10.6-16.7-22.2-16.7h-7.8a1.6,1.6,0,0,1-1.5-1.2,123.9,123.9,0,0,0-18.8-44.9c-1.1-1.6-1-4.2-.5-6,3.3-10.3,7.1-22,6.3-34.2-.5-8.8-5-13.2-13.8-13.5A56.1,56.1,0,0,0,291.3,90c-2.7,1.7-4.6,1.3-7.1.2-6.8-3.2-13.7-6.3-20.5-9.3l-7.4-3.3-2.4-1.1a1.7,1.7,0,0,1-.9-1.7c5-26.1-2.7-46.6-22.8-60.7S189-.7,168.4,11.9c-22.5,13.8-31.3,35-26.2,63.1a1.5,1.5,0,0,1-.9,1.7l-4.2,1.6L127.9,82c-34.7,15.1-59.1,37.2-74.5,67.6a113.7,113.7,0,0,0-11.8,40.9c-.2,1.7-1.3,4.6-3.2,5.3a18.9,18.9,0,0,1-26-18.3A34.8,34.8,0,0,1,15,167.4c.9-2.5,1.4-5.7-1.7-7.2a4.3,4.3,0,0,0-3.5-.3A5.9,5.9,0,0,0,6.7,163c-1,2.3-1.8,4.7-2.7,7.1s-.6,2-1,3v9.2c0,.2.1.3.1.4l.6,1.6c2.9,12.4,11,19.9,23.4,21.7a45.2,45.2,0,0,0,8.2.2Zm82.7,150.6h-1.5c-8.2-.6-14.5-7.3-15.3-16.1-.3-2.8-.6-5.6-.8-8.4-1-11-2.1-22.3-2.9-33.4-.2-3.4-1.5-5.7-4.4-8-18.8-15-31.9-32.8-39.1-53.1-13.2-37-7.3-72.2,17.6-104.4,16.3-21.2,38.3-36.5,67.1-46.6,3.2-1.1,5.1-.4,6.5,2.5a30.3,30.3,0,0,0,3.1,4.8l.5.6c.9,1.2,1.8,2.4,2.9,3.7l1.5,1.9a1.2,1.2,0,0,1,.2,1.3,1.5,1.5,0,0,1-.9,1l-4.4,1.6-9.2,3.3c-3.9,1.5-5.2,3.7-4.1,6.7s4.9,3,7.6,2c31.9-12.2,64.9-13,97.8-2.3l3.9,1.4,3.5,1.3c3.1,1,5.6,0,6.5-2.5s-.2-5.1-3.2-6.2-6.6-2.5-9.9-3.7l-4.3-1.5a1.6,1.6,0,0,1-.9-.9,1.5,1.5,0,0,1,.2-1.3l2.1-3.2c2.2-3.2,4.4-6.6,6.8-9.8.9-1.3,3.6-1.4,5-.8l4.7,2.1c8.5,3.8,17.3,7.8,25.8,12.1,3.9,2,6.1,1.9,9-.3a51.3,51.3,0,0,1,26.9-10.5c4.2-.5,7.4-.3,9.2,1.6s1.8,4.3.9,8.9a277.6,277.6,0,0,1-6.9,27.6c-1.3,4.2-1,6.7,1,9.5a109.2,109.2,0,0,1,19.7,46.8c.8,4.4,2.1,5.5,6.6,5.6h12.8c7,.2,11.5,4.6,11.7,11.2.2,12.3.2,24.5,0,36.5-.2,6.5-4.9,11-11.8,11-9.4.2-17.1.2-24.5,0-3.3,0-5.3,1.1-6.8,3.9a125.4,125.4,0,0,1-33.1,38.7,9.1,9.1,0,0,0-3.7,7.1c-.9,12.2-2.1,24.7-3.2,36.7l-.5,5.5c-.8,8.9-7.4,15.6-15.8,16.1s-15.7-4.9-17.8-13.7c-.8-3.6-1.7-7.2-2.5-10.8l-2.1-9.3c-.5-2.3-1.3-3.7-2.5-4.4s-2.7-.7-4.8-.1a174.9,174.9,0,0,1-95.2,0c-2.4-.6-4-.6-5.1,0s-2,2.3-2.6,5-.9,3.9-1.4,5.8c-1,4.6-2.1,9.3-3.2,13.9C135.9,351.4,129.5,356.7,121.2,356.7ZM144.3,89.1l-1.4.3c-28.2,10-49.8,24.9-65.8,45.6C53,166.4,47.2,200.6,60,236.6c7,19.7,19.8,37.1,38.2,51.7,3.5,2.9,5.2,5.9,5.5,10.2.8,11.1,1.9,22.4,2.9,33.3.2,2.8.5,5.6.7,8.5.7,7.3,5.9,12.8,12.6,13.3s13.4-3.9,15.1-11.3c1.1-4.6,2.2-9.3,3.2-13.8.4-2,.9-4,1.3-5.9.8-3.5,2.1-5.7,4-6.8s4.3-1.3,7.5-.4a171.7,171.7,0,0,0,93.5,0c3-.9,5.4-.7,7.2.4s3.2,3.2,4,6.4l2.1,9.2,2.4,10.8c1.8,7.5,7.4,11.8,14.7,11.4s12.3-5.9,13-13.3l.5-5.6c1.1-12,2.3-24.4,3.2-36.6a12,12,0,0,1,4.9-9.3,121.7,121.7,0,0,0,32.3-37.7,9.6,9.6,0,0,1,9.2-5.5h.3c7.3.2,15,.2,24.3,0,5.4,0,8.8-3.1,8.9-8.1.2-11.9.2-24.1,0-36.3-.1-5-3.4-8.1-8.8-8.3H350c-6.1-.1-8.6-2.2-9.6-8.1a106.1,106.1,0,0,0-19.1-45.5c-3-4.2-2.8-7.9-1.5-12.1,3-10,5.2-19,6.9-27.4.6-3.4.6-5.4-.2-6.2s-2.9-1.1-6.7-.8a48.9,48.9,0,0,0-25.4,10c-4.6,3.6-8.6,2.4-12.2.6-8.4-4.3-17.2-8.2-25.7-12.1l-4.7-2.1a3.3,3.3,0,0,0-1.4,0c-2.3,3.1-4.5,6.4-6.6,9.6-.3.5-.7,1-1,1.6l2.4.8c3.3,1.2,6.7,2.3,10,3.7s6.4,5.8,4.9,10-5.6,5.8-10.2,4.3l-3.7-1.3-3.7-1.4c-32.3-10.4-64.5-9.7-95.9,2.3-5.4,2.1-9.7.7-11.4-3.8s.4-8.4,5.8-10.5c3-1.2,6.1-2.2,9.3-3.4l2.4-.8-.2-.2c-1-1.3-2-2.5-2.9-3.8l-.5-.6a40.1,40.1,0,0,1-3.4-5.3C145.3,89.5,145,89.1,144.3,89.1Zm78.6,9.8h-1.7a158.2,158.2,0,0,0-48.1-.1,7,7,0,0,1-5.5-1.5c-15.4-13.3-20.8-29.5-16-48.2s17.3-30.6,37.1-35.1a30.9,30.9,0,0,1,6-.8l2.7-.3h.2a47.8,47.8,0,0,1,44.7,31.3,47.1,47.1,0,0,1-13.6,52.4A8.7,8.7,0,0,1,222.9,98.9Zm-25.4-5a158.9,158.9,0,0,1,24.1,1.9,5.7,5.7,0,0,0,5.2-1.6,43.9,43.9,0,0,0,12.6-49,44.7,44.7,0,0,0-41.8-29.4l-2.6.3a35.5,35.5,0,0,0-5.7.7c-18.6,4.2-30.3,15.3-34.8,33s.6,32.7,15,45.2a5.7,5.7,0,0,0,3.2.8A160.3,160.3,0,0,1,197.5,93.9Z" transform="translate(0 0.1)"/><path d="M316.2,176.2c0,2.3.2,4.5,0,6.8-.3,3.9-3,6.4-6.4,6.3s-5.8-2.8-6-6.5-.1-8.7,0-13.1,2.9-6.5,6.3-6.5,5.8,2.6,6.1,6.3S316.2,174,316.2,176.2Z" transform="translate(0 0.1)"/><path d="M310.1,190.8h-.4c-4.1-.2-7.2-3.6-7.4-8s-.1-8.7,0-13.1,3.5-8,7.7-8h.1c4.2.1,7.3,3.2,7.6,7.7.1,1.6.1,3.2.1,4.8s-.1,1.4-.1,2h0c0,.7.1,1.4.1,2.1s0,3.2-.1,4.8C317.4,187.6,314.2,190.8,310.1,190.8Zm-.1-26.1c-2.6,0-4.6,2.2-4.7,5.1s-.1,8.7,0,13c.1,2.8,1.9,4.9,4.5,5s4.7-1.9,4.9-5c.1-1.4.1-2.9.1-4.5s-.1-1.4-.1-2.1h0c0-.7.1-1.4.1-2.1s0-3-.1-4.5-2.1-4.9-4.6-4.9Z" transform="translate(0 0.1)"/><path d="M197.7,27.9a32.7,32.7,0,1,1-32.8,32.5A32.6,32.6,0,0,1,197.7,27.9Zm0,53A20.4,20.4,0,0,0,218,60.7c.2-11.1-9.2-20.5-20.4-20.5a20.7,20.7,0,0,0-20.4,20.6A20.4,20.4,0,0,0,197.7,80.9Z" transform="translate(0 0.1)"/><path d="M197.6,94.8h-.3a34.2,34.2,0,0,1,.3-68.4h.1a34.2,34.2,0,0,1,24,58.5A33.9,33.9,0,0,1,197.6,94.8Zm0-65.4a31.2,31.2,0,0,0-.2,62.4,30.6,30.6,0,0,0,22.2-9,31.3,31.3,0,0,0-21.9-53.4Zm0,53a22,22,0,0,1-21.9-21.6,22.2,22.2,0,0,1,21.9-22.1h0a22,22,0,0,1,21.9,22.1,21.9,21.9,0,0,1-21.8,21.6h-.1Zm0-40.7h0a18.6,18.6,0,0,0-13.4,5.7,18.7,18.7,0,0,0,13.4,32h.1a19,19,0,0,0,18.8-18.7A18.4,18.4,0,0,0,211,47.4,18.6,18.6,0,0,0,197.6,41.7Z" transform="translate(0 0.1)"/></svg>