<svg xmlns="http://www.w3.org/2000/svg" xmlns:xlink="http://www.w3.org/1999/xlink" width="94" height="46" viewBox="0 0 94 46">
  <defs>
    <clipPath id="clip-path">
      <rect id="Rectangle_1453" data-name="Rectangle 1453" width="94" height="46" rx="10" transform="translate(326 2909)" fill="#fff" stroke="#f3f3f3" stroke-width="1"/>
    </clipPath>
  </defs>
  <g id="Group_4773" data-name="Group 4773" transform="translate(-518 -2909)">
    <g id="Rectangle_1460" data-name="Rectangle 1460" transform="translate(518 2909)" fill="#fff" stroke="#d1d1d1" stroke-width="1">
      <rect width="94" height="46" rx="10" stroke="none"/>
      <rect x="0.5" y="0.5" width="93" height="45" rx="9.5" fill="none"/>
    </g>
    <g id="Mask_Group_5" data-name="Mask Group 5" transform="translate(192)" clip-path="url(#clip-path)">
      <g id="klarna" transform="translate(330.344 2907.761)">
        <rect id="Rectangle_938" data-name="Rectangle 938" width="92.25" height="50" rx="12.423" transform="translate(-3.469 -0.761)" fill="#ffb3c7"/>
        <path id="Tracé_382" data-name="Tracé 382" d="M61.475,32.526a1.434,1.434,0,1,0,1.013.425,1.434,1.434,0,0,0-1.013-.425Zm-4.7-1.114a2.065,2.065,0,1,0-2.063,1.975,2.021,2.021,0,0,0,2.063-1.975Zm0-3.839h2.277V35.25H56.778v-.485a3.97,3.97,0,0,1-2.259.7,4.057,4.057,0,1,1,0-8.114,3.962,3.962,0,0,1,2.259.7Zm-18.226,1v-1H36.219v7.675h2.337V31.663c0-1.2,1.3-1.859,2.2-1.859h.026V27.573a2.83,2.83,0,0,0-2.235,1Zm-5.808,2.838a2.065,2.065,0,1,0-2.063,1.975,2.021,2.021,0,0,0,2.063-1.975Zm0-3.839h2.279V35.25H32.75v-.485a3.972,3.972,0,0,1-2.259.7,4.057,4.057,0,1,1,0-8.114,3.962,3.962,0,0,1,2.259.7Zm13.71-.2a2.76,2.76,0,0,0-2.347,1.07v-.863H41.845v7.675h2.3V31.216a1.6,1.6,0,0,1,1.71-1.738c1,0,1.576.6,1.576,1.722v4.05H49.7V30.359a3.024,3.024,0,0,0-3.243-3ZM23.16,35.25h2.383V24.15H23.16Zm-10.473,0h2.526V24.15H12.689Zm8.833-11.1a8.869,8.869,0,0,1-2.584,6.3l3.489,4.807H19.309L15.517,30.05l.979-.741a6.393,6.393,0,0,0,2.55-5.159h2.47Z" transform="translate(5.425 -7.104)" fill="#0a0b09"/>
      </g>
    </g>
  </g>
</svg>
