<svg id="PayPal-logo" xmlns="http://www.w3.org/2000/svg" width="70.5" height="17.215" viewBox="0 0 70.5 17.215">
  <path id="Tracé_36" data-name="Tracé 36" d="M41.679,6.749h-3.9a.542.542,0,0,0-.536.458l-1.578,10a.325.325,0,0,0,.322.375h1.863a.542.542,0,0,0,.536-.458l.426-2.7a.541.541,0,0,1,.535-.458H40.58c2.57,0,4.053-1.244,4.44-3.708a3,3,0,0,0-.5-2.519A3.62,3.62,0,0,0,41.679,6.749Zm.45,3.654c-.213,1.4-1.283,1.4-2.317,1.4h-.589l.413-2.614a.325.325,0,0,1,.321-.274h.27c.7,0,1.369,0,1.713.4A1.3,1.3,0,0,1,42.129,10.4Z" transform="translate(-15.317 -2.899)" fill="#253b80"/>
  <path id="Tracé_37" data-name="Tracé 37" d="M60,12.943H58.132a.325.325,0,0,0-.321.274l-.083.523L57.6,13.55a2.659,2.659,0,0,0-2.207-.783,4.3,4.3,0,0,0-4.171,3.757,3.526,3.526,0,0,0,.7,2.87,2.923,2.923,0,0,0,2.353.95,3.575,3.575,0,0,0,2.586-1.07l-.083.519a.325.325,0,0,0,.321.376h1.683a.542.542,0,0,0,.536-.458l1.01-6.394A.324.324,0,0,0,60,12.943Zm-2.6,3.636a2.082,2.082,0,0,1-2.108,1.784,1.447,1.447,0,0,1-1.548-1.816,2.091,2.091,0,0,1,2.094-1.8,1.576,1.576,0,0,1,1.246.509A1.617,1.617,0,0,1,57.4,16.579Z" transform="translate(-21.977 -5.484)" fill="#253b80"/>
  <path id="Tracé_38" data-name="Tracé 38" d="M77.542,13.075H75.664a.544.544,0,0,0-.449.238l-2.589,3.814-1.1-3.665a.544.544,0,0,0-.52-.387H69.163a.325.325,0,0,0-.309.43l2.068,6.069-1.944,2.744a.325.325,0,0,0,.265.513h1.875a.541.541,0,0,0,.446-.233l6.244-9.013A.325.325,0,0,0,77.542,13.075Z" transform="translate(-29.569 -5.616)" fill="#253b80"/>
  <path id="Tracé_39" data-name="Tracé 39" d="M90.46,6.749h-3.9a.542.542,0,0,0-.535.458l-1.578,10a.325.325,0,0,0,.321.375h2a.379.379,0,0,0,.374-.321l.448-2.836a.541.541,0,0,1,.535-.458h1.234c2.57,0,4.053-1.244,4.441-3.708a3,3,0,0,0-.5-2.519A3.616,3.616,0,0,0,90.46,6.749Zm.45,3.654c-.213,1.4-1.282,1.4-2.317,1.4H88l.414-2.614a.324.324,0,0,1,.321-.274h.27c.7,0,1.369,0,1.713.4A1.3,1.3,0,0,1,90.91,10.4Z" transform="translate(-36.271 -2.899)" fill="#179bd7"/>
  <path id="Tracé_40" data-name="Tracé 40" d="M108.782,12.943h-1.867a.324.324,0,0,0-.321.274l-.083.523-.131-.189a2.658,2.658,0,0,0-2.206-.783A4.3,4.3,0,0,0,100,16.524a3.528,3.528,0,0,0,.7,2.87,2.925,2.925,0,0,0,2.353.95,3.575,3.575,0,0,0,2.586-1.07l-.083.519a.325.325,0,0,0,.322.376h1.682a.542.542,0,0,0,.535-.458l1.01-6.394A.326.326,0,0,0,108.782,12.943Zm-2.6,3.636a2.081,2.081,0,0,1-2.108,1.784,1.447,1.447,0,0,1-1.548-1.816,2.092,2.092,0,0,1,2.094-1.8,1.576,1.576,0,0,1,1.246.509A1.609,1.609,0,0,1,106.178,16.579Z" transform="translate(-42.932 -5.484)" fill="#179bd7"/>
  <path id="Tracé_41" data-name="Tracé 41" d="M118.086,7.023l-1.6,10.187a.325.325,0,0,0,.321.375h1.61a.541.541,0,0,0,.536-.458l1.579-10a.325.325,0,0,0-.321-.376h-1.8A.326.326,0,0,0,118.086,7.023Z" transform="translate(-50.034 -2.899)" fill="#179bd7"/>
  <path id="Tracé_42" data-name="Tracé 42" d="M4.6,17.071l.3-1.9-.665-.015H1.061L3.266,1.177a.185.185,0,0,1,.062-.11.18.18,0,0,1,.118-.043H8.8c1.776,0,3,.37,3.642,1.1a2.506,2.506,0,0,1,.584,1.094,3.948,3.948,0,0,1,0,1.508l-.007.044v.386l.3.17a2.1,2.1,0,0,1,.608.463,2.157,2.157,0,0,1,.493,1.106,4.677,4.677,0,0,1-.07,1.6,5.649,5.649,0,0,1-.657,1.816,3.735,3.735,0,0,1-1.041,1.141,4.224,4.224,0,0,1-1.4.633,6.992,6.992,0,0,1-1.752.2H9.08a1.252,1.252,0,0,0-1.238,1.057l-.031.171-.527,3.34-.024.123a.105.105,0,0,1-.033.071.088.088,0,0,1-.055.02Z" transform="translate(-0.456 -0.44)" fill="#253b80"/>
  <path id="Tracé_43" data-name="Tracé 43" d="M15.806,7.667h0q-.024.153-.055.314c-.706,3.623-3.12,4.875-6.2,4.875H7.978a.762.762,0,0,0-.754.646h0l-.8,5.1-.228,1.445a.4.4,0,0,0,.4.464H9.374a.67.67,0,0,0,.662-.565l.027-.141.524-3.327.034-.183a.67.67,0,0,1,.662-.566H11.7c2.7,0,4.81-1.1,5.427-4.265a3.631,3.631,0,0,0-.558-3.207A2.662,2.662,0,0,0,15.806,7.667Z" transform="translate(-2.658 -3.293)" fill="#179bd7"/>
  <path id="Tracé_44" data-name="Tracé 44" d="M15.848,6.96q-.162-.047-.333-.086t-.353-.067a8.719,8.719,0,0,0-1.384-.1H9.584a.669.669,0,0,0-.661.566l-.892,5.651-.026.165a.762.762,0,0,1,.754-.646h1.57c3.083,0,5.5-1.252,6.2-4.875.021-.107.039-.212.055-.314a3.761,3.761,0,0,0-.58-.245Z" transform="translate(-3.438 -2.881)" fill="#222d65"/>
  <path id="Tracé_45" data-name="Tracé 45" d="M5.484,4.392a.669.669,0,0,1,.661-.565H10.34a8.719,8.719,0,0,1,1.384.1q.181.029.353.067t.333.086l.159.049a3.818,3.818,0,0,1,.58.245A3.422,3.422,0,0,0,12.423,1.3C11.625.389,10.184,0,8.341,0H2.99a.765.765,0,0,0-.756.646L.006,14.774a.46.46,0,0,0,.454.532h3.3l.829-5.262Z" transform="translate(0 0)" fill="#253b80"/>
</svg>
