<svg id="Layer_1" data-name="Layer 1" xmlns="http://www.w3.org/2000/svg" viewBox="0 0 460.8 405"><path d="M303.3,350.8l2.3.2a13.6,13.6,0,0,0,13.3-11.3l13.5-81a13.5,13.5,0,0,0-26.7-4.4l-13.5,81a13.5,13.5,0,0,0,11.1,15.5ZM142.8,339.7A13.6,13.6,0,0,0,156.1,351l2.3-.2a13.5,13.5,0,0,0,11.1-15.5l-13.5-81a13.5,13.5,0,0,0-26.7,4.4Z"/><path d="M447.3,135H399.8L295.8,5.1A13.3,13.3,0,0,0,276.9,3a13.3,13.3,0,0,0-2.1,18.9L365.2,135H95.6L186,21.9A13.3,13.3,0,0,0,183.9,3,13.3,13.3,0,0,0,165,5.1L61,135H13.5A13.4,13.4,0,0,0,0,148.5v54A13.4,13.4,0,0,0,13.5,216H30.3L81.5,395.2a13.6,13.6,0,0,0,13,9.8H366.3a13.6,13.6,0,0,0,13-9.8L430.5,216h16.8a13.4,13.4,0,0,0,13.5-13.5v-54A13.4,13.4,0,0,0,447.3,135ZM356.1,378H104.7L58.4,216h344Zm77.7-189H27V162H433.8Z"/><path d="M230.4,351a13.4,13.4,0,0,0,13.5-13.5v-81a13.5,13.5,0,0,0-27,0v81A13.4,13.4,0,0,0,230.4,351Z"/></svg>