<svg id="Layer_1" data-name="Layer 1" xmlns="http://www.w3.org/2000/svg" viewBox="0 0 381 408.8"><path d="M11.6,408.8C2.4,405.4-.3,398.5,0,389c.8-22.8,4.2-45,13-66.2,14.2-34.1,38.9-57.8,72.2-72.9,24-11,49.5-16,75.6-18.3a339,339,0,0,1,73.3,1.5c31.3,4.1,61.1,12.9,87.2,31.3,30,21.2,47.8,50.3,55,85.8,2.6,12.7,3.1,25.9,4.5,38.8,1.1,9.4-2.2,16.4-11.5,19.8Zm338.2-30c.2-.5.5-.7.4-.9-.2-3.2-.4-6.4-.8-9.5-2.6-19.3-8.4-37.4-19.4-53.5-15.4-22.4-37.2-36-62.7-44.2s-50.1-10.5-75.9-10.5-53.9,2.5-79.8,11.1c-18,6.1-34.3,15-47.9,28.5-16.6,16.4-26.1,36.5-30.5,59.3-1.2,6.4-1.9,13-2.9,19.7Z"/><path d="M289.5,104.2c-1.2,32.8-14.2,62.2-42.2,84.6-29.7,23.7-74.6,26.3-106.1,5C102.5,167.7,87.4,130.4,93,84.6c3.4-27.4,16.6-49.7,39.1-66S178-2.4,204.2,1c28.4,3.7,51.1,17.3,67.5,40.9C284.1,59.8,289.3,80.1,289.5,104.2ZM121.4,98.8c.2,22.2,6.4,40.3,19.4,56,24.4,29.5,68.2,31.7,95,4.5,19.4-19.7,26.8-43.7,22.6-70.8-8-51.8-61.9-72-102.3-50C131.9,51.8,122.2,74,121.4,98.8Z"/></svg>