<svg xmlns="http://www.w3.org/2000/svg" width="41.92" height="13.567" viewBox="0 0 41.92 13.567">
  <g id="visa-logo" transform="translate(-81.166 -105.048)">
    <path id="polygon9" d="M436.9,123.86h-3.4l2.124-13.133h3.4Z" transform="translate(-337.572 -5.441)" fill="#00579f"/>
    <path id="path11" d="M575.365,105.607a8.368,8.368,0,0,0-3.046-.559c-3.353,0-5.715,1.788-5.729,4.345-.028,1.886,1.691,2.934,2.976,3.563,1.314.643,1.76,1.062,1.76,1.635-.013.88-1.062,1.285-2.039,1.285a6.758,6.758,0,0,1-3.186-.7l-.447-.21-.475,2.948a10.335,10.335,0,0,0,3.787.7c3.563,0,5.883-1.761,5.91-4.485.014-1.5-.894-2.641-2.85-3.577-1.188-.6-1.915-1.006-1.915-1.621.014-.559.615-1.131,1.956-1.131a5.77,5.77,0,0,1,2.53.5l.307.139.462-2.836Z" transform="translate(-463.724)" fill="#00579f"/>
    <path id="path13" d="M795.776,119.207c.28-.754,1.356-3.675,1.356-3.675-.014.028.279-.768.447-1.257l.237,1.132s.643,3.144.783,3.8Zm4.192-8.481h-2.627a1.676,1.676,0,0,0-1.775,1.09l-5.044,12.043h3.563l.713-1.97h4.36c.1.461.405,1.97.405,1.97h3.144l-2.74-13.133Z" transform="translate(-679.621 -5.441)" fill="#00579f"/>
    <path id="path15" d="M174.22,110.727l-3.326,8.956-.363-1.816a10.052,10.052,0,0,0-4.695-5.5l3.046,11.485h3.591l5.338-13.119Z" transform="translate(-81.121 -5.441)" fill="#00579f"/>
    <path id="path17" d="M86.685,110.727H81.222l-.056.265c4.262,1.09,7.085,3.717,8.244,6.874l-1.188-6.036a1.405,1.405,0,0,0-1.537-1.1Z" transform="translate(0 -5.441)" fill="#faa61a"/>
  </g>
</svg>
