<svg id="Group_4643" data-name="Group 4643" xmlns="http://www.w3.org/2000/svg" xmlns:xlink="http://www.w3.org/1999/xlink" width="18.795" height="19.25" viewBox="0 0 18.795 19.25">
  <defs>
    <clipPath id="clip-path">
      <rect id="Rectangle_1432" data-name="Rectangle 1432" width="18.795" height="19.251" fill="#212121" stroke="#212121" stroke-width="1"/>
    </clipPath>
  </defs>
  <g id="Group_4643-2" data-name="Group 4643" clip-path="url(#clip-path)">
    <path id="Path_17564" data-name="Path 17564" d="M.033,19.251c-.034-.084.046-.115.083-.158q3.527-4.1,7.062-8.2A.256.256,0,0,0,7.2,10.5Q3.656,5.368.126.222C.084.161.042.1,0,.036.038-.021.092.007.136.007c1.767,0,3.534,0,5.3,0a.255.255,0,0,1,.24.131Q8,3.523,10.332,6.909c.035.051.071.1.12.168l.947-1.1q2.494-2.9,4.985-5.8a.452.452,0,0,1,.4-.176c.461.012.922,0,1.418,0L17.005,1.4Q14.161,4.7,11.314,8a.219.219,0,0,0-.012.327q3.705,5.379,7.4,10.764c.034.05.085.093.092.16h-5.6a.6.6,0,0,0-.034-.065q-2.5-3.642-5-7.285c-.082-.12-.119-.089-.194,0q-1.884,2.195-3.772,4.386Q2.919,17.767,1.65,19.251Zm16.487-1.2a.81.81,0,0,0-.039-.079Q10.675,9.671,4.87,1.366a.245.245,0,0,0-.231-.115c-.745,0-1.491,0-2.237,0-.045,0-.1-.026-.142.028.038.057.075.114.114.17L11.14,13.986q1.371,1.961,2.743,3.921c.043.062.066.149.173.149.813,0,1.626,0,2.465,0" transform="translate(0 0)" fill="#212121" stroke="#212121" stroke-width="1"/>
  </g>
</svg>
