<svg xmlns="http://www.w3.org/2000/svg" xmlns:xlink="http://www.w3.org/1999/xlink" width="94" height="46" viewBox="0 0 94 46">
  <defs>
    <clipPath id="clip-path">
      <rect id="Rectangle_1454" data-name="Rectangle 1454" width="94" height="46" rx="10" transform="translate(430 2909)" fill="#fff" stroke="#f3f3f3" stroke-width="1"/>
    </clipPath>
  </defs>
  <g id="Group_4772" data-name="Group 4772" transform="translate(-414 -2909)">
    <g id="Rectangle_1463" data-name="Rectangle 1463" transform="translate(414 2909)" fill="#fff" stroke="#d1d1d1" stroke-width="1">
      <rect width="94" height="46" rx="10" stroke="none"/>
      <rect x="0.5" y="0.5" width="93" height="45" rx="9.5" fill="none"/>
    </g>
    <g id="Mask_Group_6" data-name="Mask Group 6" transform="translate(-16)" clip-path="url(#clip-path)">
      <g id="PayPal-logo.20cb89e" transform="translate(441.504 2923.331)">
        <path id="Tracé_36" data-name="Tracé 36" d="M53.607,8.993H49.68a.546.546,0,0,0-.54.461L47.551,19.524a.327.327,0,0,0,.324.378h1.876a.546.546,0,0,0,.54-.461l.429-2.719a.545.545,0,0,1,.539-.461H52.5c2.588,0,4.081-1.253,4.471-3.734a3.021,3.021,0,0,0-.5-2.536,3.645,3.645,0,0,0-2.861-1Zm.453,3.679c-.214,1.41-1.292,1.41-2.333,1.41h-.593l.416-2.632a.327.327,0,0,1,.323-.276h.272c.7,0,1.379,0,1.725.4a1.309,1.309,0,0,1,.19,1.093Z" transform="translate(-27.062 -5.117)" fill="#253b80"/>
        <path id="Tracé_37" data-name="Tracé 37" d="M77.112,17.194H75.231a.327.327,0,0,0-.323.276L74.824,18,74.7,17.8a2.677,2.677,0,0,0-2.222-.788,4.33,4.33,0,0,0-4.2,3.783,3.55,3.55,0,0,0,.7,2.89,2.943,2.943,0,0,0,2.369.957,3.6,3.6,0,0,0,2.6-1.077l-.084.523a.327.327,0,0,0,.323.379h1.695a.546.546,0,0,0,.54-.461l1.017-6.438a.326.326,0,0,0-.33-.377Zm-2.618,3.661a2.1,2.1,0,0,1-2.123,1.8,1.457,1.457,0,0,1-1.559-1.829,2.106,2.106,0,0,1,2.109-1.812,1.587,1.587,0,0,1,1.255.513,1.628,1.628,0,0,1,.318,1.332Z" transform="translate(-38.825 -9.683)" fill="#253b80"/>
        <path id="Tracé_38" data-name="Tracé 38" d="M100.546,17.433H98.655a.548.548,0,0,0-.452.24L95.6,21.513l-1.108-3.69a.548.548,0,0,0-.524-.39H92.109a.327.327,0,0,0-.311.433l2.082,6.111L91.922,26.74a.327.327,0,0,0,.267.517h1.888a.545.545,0,0,0,.449-.235l6.287-9.076a.327.327,0,0,0-.268-.514Z" transform="translate(-52.24 -9.922)" fill="#253b80"/>
        <path id="Tracé_39" data-name="Tracé 39" d="M118.647,8.993H114.72a.546.546,0,0,0-.539.461l-1.589,10.069a.327.327,0,0,0,.323.378h2.014a.382.382,0,0,0,.377-.323l.451-2.856a.545.545,0,0,1,.539-.461h1.243c2.588,0,4.081-1.253,4.472-3.734a3.021,3.021,0,0,0-.5-2.536A3.641,3.641,0,0,0,118.647,8.993Zm.453,3.679c-.214,1.41-1.291,1.41-2.333,1.41h-.6l.417-2.632a.326.326,0,0,1,.323-.276h.272c.7,0,1.379,0,1.725.4a1.309,1.309,0,0,1,.193,1.093Z" transform="translate(-64.081 -5.117)" fill="#179bd7"/>
        <path id="Tracé_40" data-name="Tracé 40" d="M142.152,17.194h-1.88a.326.326,0,0,0-.323.276l-.084.527-.132-.19a2.676,2.676,0,0,0-2.221-.788,4.33,4.33,0,0,0-4.2,3.782,3.552,3.552,0,0,0,.7,2.89,2.945,2.945,0,0,0,2.369.957,3.6,3.6,0,0,0,2.6-1.077l-.084.523a.327.327,0,0,0,.324.379h1.694a.546.546,0,0,0,.539-.461l1.017-6.438a.328.328,0,0,0-.325-.377Zm-2.618,3.661a2.1,2.1,0,0,1-2.123,1.8,1.457,1.457,0,0,1-1.559-1.829,2.107,2.107,0,0,1,2.109-1.813,1.587,1.587,0,0,1,1.255.513,1.62,1.62,0,0,1,.314,1.332Z" transform="translate(-75.844 -9.683)" fill="#179bd7"/>
        <path id="Tracé_41" data-name="Tracé 41" d="M156.921,9.275,155.31,19.533a.327.327,0,0,0,.323.378h1.621a.545.545,0,0,0,.54-.461l1.59-10.069A.327.327,0,0,0,159.061,9h-1.812a.328.328,0,0,0-.327.274Z" transform="translate(-88.396 -5.122)" fill="#179bd7"/>
        <path id="Tracé_42" data-name="Tracé 42" d="M4.978,17.524l.3-1.913-.67-.015h-3.2L3.635,1.519A.186.186,0,0,1,3.7,1.409a.181.181,0,0,1,.119-.043H9.207c1.788,0,3.021.373,3.667,1.108a2.523,2.523,0,0,1,.588,1.1,3.975,3.975,0,0,1,0,1.518l-.007.044v.389l.3.171a2.115,2.115,0,0,1,.612.466,2.172,2.172,0,0,1,.5,1.114,4.709,4.709,0,0,1-.07,1.611,5.688,5.688,0,0,1-.662,1.829,3.761,3.761,0,0,1-1.048,1.149,4.253,4.253,0,0,1-1.41.637,7.04,7.04,0,0,1-1.764.2H9.489a1.261,1.261,0,0,0-1.247,1.064l-.031.172L7.681,17.3l-.024.124a.106.106,0,0,1-.033.071.089.089,0,0,1-.055.02Z" transform="translate(-0.805 -0.777)" fill="#253b80"/>
        <path id="Tracé_43" data-name="Tracé 43" d="M17.936,10.222h0q-.024.154-.055.316c-.711,3.648-3.142,4.909-6.243,4.909H10.054a.767.767,0,0,0-.759.65h0l-.806,5.135-.23,1.455a.4.4,0,0,0,.4.467h2.8a.675.675,0,0,0,.667-.569l.027-.142.528-3.35.034-.184a.675.675,0,0,1,.667-.57h.42c2.719,0,4.843-1.108,5.465-4.295a3.656,3.656,0,0,0-.562-3.229,2.68,2.68,0,0,0-.768-.594Z" transform="translate(-4.697 -5.818)" fill="#179bd7"/>
        <path id="Tracé_44" data-name="Tracé 44" d="M18.571,9.2q-.163-.047-.335-.087t-.355-.067a8.779,8.779,0,0,0-1.394-.1H12.263a.674.674,0,0,0-.666.57l-.9,5.69-.026.166a.767.767,0,0,1,.759-.65h1.581c3.1,0,5.538-1.261,6.243-4.909.021-.108.039-.213.055-.316a3.787,3.787,0,0,0-.584-.247Z" transform="translate(-6.074 -5.09)" fill="#222d65"/>
        <path id="Tracé_45" data-name="Tracé 45" d="M5.522,4.423a.674.674,0,0,1,.666-.569h4.224a8.78,8.78,0,0,1,1.394.1q.182.029.355.067t.335.087l.16.049a3.845,3.845,0,0,1,.584.247,3.446,3.446,0,0,0-.731-3.1C11.706.392,10.255,0,8.4,0H3.011A.77.77,0,0,0,2.25.65L.006,14.877a.463.463,0,0,0,.457.536H3.786l.835-5.3Z" transform="translate(0 0)" fill="#253b80"/>
      </g>
    </g>
  </g>
</svg>
