<svg xmlns="http://www.w3.org/2000/svg" xmlns:xlink="http://www.w3.org/1999/xlink" width="94" height="46" viewBox="0 0 94 46">
  <defs>
    <clipPath id="clip-path">
      <rect id="Rectangle_1452" data-name="Rectangle 1452" width="94" height="46" rx="10" transform="translate(222 2909)" fill="#fff" stroke="#f3f3f3" stroke-width="1"/>
    </clipPath>
  </defs>
  <g id="Group_4770" data-name="Group 4770" transform="translate(-206 -2909)">
    <g id="Rectangle_1461" data-name="Rectangle 1461" transform="translate(206 2909)" fill="#fff" stroke="#d1d1d1" stroke-width="1">
      <rect width="94" height="46" rx="10" stroke="none"/>
      <rect x="0.5" y="0.5" width="93" height="45" rx="9.5" fill="none"/>
    </g>
    <g id="Mask_Group_4" data-name="Mask Group 4" transform="translate(-16)" clip-path="url(#clip-path)">
      <g id="mastercard-logo.b31cdee" transform="translate(248.896 2916.387)">
        <path id="XMLID_1775_" d="M98.063,1232.945v-2.072a1.215,1.215,0,0,0-1.311-1.311,1.358,1.358,0,0,0-1.175.587,1.211,1.211,0,0,0-1.107-.587,1.113,1.113,0,0,0-.966.483v-.415h-.723v3.315h.725v-1.831c0-.587.31-.865.793-.865s.725.31.725.865v1.831h.725v-1.831a.765.765,0,0,1,.793-.865c.483,0,.725.31.725.865v1.831Zm10.742-3.315H107.63v-1h-.723v1h-.656v.656h.656v1.518c0,.759.31,1.207,1.138,1.207a1.948,1.948,0,0,0,.9-.242l-.209-.623a1.159,1.159,0,0,1-.623.173c-.347,0-.483-.209-.483-.552v-1.485H108.8v-.656Zm6.148-.072a.982.982,0,0,0-.865.483v-.415h-.725v3.315h.725v-1.867c0-.551.242-.865.692-.865a2.236,2.236,0,0,1,.45.068l.209-.692a2.862,2.862,0,0,0-.487-.028Zm-9.29.347a2.375,2.375,0,0,0-1.348-.346c-.828,0-1.38.415-1.38,1.07,0,.551.415.865,1.138.965l.347.037c.379.068.587.173.587.346,0,.241-.278.415-.759.415a1.91,1.91,0,0,1-1.107-.347l-.347.552a2.43,2.43,0,0,0,1.416.415c.966,0,1.518-.45,1.518-1.07,0-.588-.45-.9-1.138-1l-.347-.037c-.31-.037-.551-.1-.551-.31,0-.241.242-.379.623-.379a2.494,2.494,0,0,1,1.038.277l.306-.587Zm19.267-.347a.982.982,0,0,0-.865.483v-.415h-.725v3.315h.725v-1.867c0-.551.242-.865.692-.865a2.236,2.236,0,0,1,.45.068l.209-.684a2.2,2.2,0,0,0-.487-.037Zm-9.254,1.73a1.659,1.659,0,0,0,1.762,1.726,1.735,1.735,0,0,0,1.175-.379l-.347-.587a1.383,1.383,0,0,1-.865.31.98.98,0,0,1-1-1.07,1.012,1.012,0,0,1,1-1.07,1.416,1.416,0,0,1,.865.31l.346-.588a1.715,1.715,0,0,0-1.175-.379,1.657,1.657,0,0,0-1.762,1.726Zm6.7,0v-1.658h-.725v.415a1.25,1.25,0,0,0-1.038-.483,1.727,1.727,0,0,0,0,3.452,1.171,1.171,0,0,0,1.038-.483v.415h.72v-1.658Zm-2.656,0a1,1,0,1,1,.479.929A1,1,0,0,1,119.723,1231.288Zm-8.667-1.73a1.726,1.726,0,0,0,.037,3.453,2.1,2.1,0,0,0,1.348-.45l-.347-.518a1.645,1.645,0,0,1-.966.346.933.933,0,0,1-1-.793h2.45v-.277a1.529,1.529,0,0,0-1.518-1.758Zm0,.624a.807.807,0,0,1,.828.793h-1.731a.873.873,0,0,1,.9-.793Zm17.992,1.107v-2.969h-.731v1.726a1.251,1.251,0,0,0-1.038-.483,1.727,1.727,0,0,0,0,3.452,1.171,1.171,0,0,0,1.038-.483v.415h.725v-1.658Zm-2.656,0a1,1,0,1,1,.479.929A1,1,0,0,1,126.393,1231.288Zm-24.245,0v-1.658h-.725v.415a1.25,1.25,0,0,0-1.038-.483,1.727,1.727,0,0,0,0,3.452,1.171,1.171,0,0,0,1.038-.483v.415h.716v-1.658Zm-2.691,0a1,1,0,1,1,.479.929A1,1,0,0,1,99.457,1231.288Z" transform="translate(-90.776 -1201.792)"/>
        <g id="Groupe_80" data-name="Groupe 80" transform="translate(0.005 0)">
          <rect id="rect19" width="10.879" height="19.545" transform="translate(14.641 2.659)" fill="#ff5a00"/>
          <path id="XMLID_330_" d="M15.371,12.436A12.467,12.467,0,0,1,20.1,2.66a12.432,12.432,0,1,0,0,19.553,12.408,12.408,0,0,1-4.731-9.777Z" transform="translate(-0.005 -0.004)" fill="#eb001b"/>
          <path id="path22" d="M950.888,12.432a12.42,12.42,0,0,1-20.1,9.773,12.458,12.458,0,0,0,0-19.545,12.42,12.42,0,0,1,20.1,9.772Z" transform="translate(-910.69 0)" fill="#f79e1b"/>
        </g>
      </g>
    </g>
  </g>
</svg>
