<svg xmlns="http://www.w3.org/2000/svg" xmlns:xlink="http://www.w3.org/1999/xlink" width="94" height="46" viewBox="0 0 94 46">
  <defs>
    <clipPath id="clip-path">
      <rect id="Rectangle_1459" data-name="Rectangle 1459" width="94" height="46" rx="10" transform="translate(838 2909)" fill="#fff" stroke="#d1d1d1" stroke-width="1"/>
    </clipPath>
    <clipPath id="clip-path-2">
      <rect id="Rectangle_1464" data-name="Rectangle 1464" width="67.091" height="14.424" fill="#3c3c3b"/>
    </clipPath>
  </defs>
  <g id="Group_4774" data-name="Group 4774" transform="translate(-838 -2909)">
    <g id="Mask_Group_8" data-name="Mask Group 8" clip-path="url(#clip-path)">
      <g id="chronopost-logo.cad03d4" transform="translate(851.455 2924.788)" clip-path="url(#clip-path-2)">
        <path id="Path_17755" data-name="Path 17755" d="M55.517,14.175H54.1V7.153a6.36,6.36,0,0,1,2.281-.436,2.581,2.581,0,0,1,2.885,2.628,2.625,2.625,0,0,1-2.907,2.84h-.067v-1.23A1.419,1.419,0,0,0,57.832,9.4a1.331,1.331,0,0,0-1.465-1.409,2.22,2.22,0,0,0-.85.134ZM72.67,10.944a.8.8,0,0,1-.917-.883V8.014h1.834V6.862H71.753V4.917H70.344v5.244c0,1.543.861,2.046,2.225,2.046a7.1,7.1,0,0,0,1.085-.089v-1.3A3.653,3.653,0,0,1,72.67,10.944ZM27.049,7.108a2.77,2.77,0,0,0-1.487-.391,2.621,2.621,0,0,0-2.751,2.74,2.56,2.56,0,0,0,2.762,2.717,2.886,2.886,0,0,0,1.521-.391V10.474a2.115,2.115,0,0,1-1.319.47,1.441,1.441,0,0,1-1.543-1.331V9.445a1.4,1.4,0,0,1,1.3-1.476h.19a1.982,1.982,0,0,1,1.342.481V7.108Zm.76,4.954h1.4V8.148a2.926,2.926,0,0,1,.984-.157.813.813,0,0,1,.928.895v3.176h1.409V8.8a1.827,1.827,0,0,0-2.035-2.057,3.889,3.889,0,0,0-1.286.224V4.481h-1.4ZM36.6,9.468a2.728,2.728,0,1,0,2.728-2.728A2.725,2.725,0,0,0,36.6,9.468Zm4.037,0a1.322,1.322,0,1,1-2.617,0,1.322,1.322,0,1,1,2.617,0Zm2.08,2.594h1.409V8.148a3.235,3.235,0,0,1,.984-.157.813.813,0,0,1,.928.895v3.176h1.42V8.8c0-1.554-.861-2.057-2.236-2.057a7.624,7.624,0,0,0-2.494.458Zm5.311-2.594a2.728,2.728,0,1,0,2.728-2.728A2.725,2.725,0,0,0,48.026,9.468Zm4.048,0a1.322,1.322,0,1,1-2.617,0,1.342,1.342,0,0,1,1.308-1.51C51.525,7.958,52.062,8.517,52.073,9.468ZM35.591,6.739c-1.353,0-2.236.5-2.236,2.057v3.276h1.42V8.9A.813.813,0,0,1,35.7,8a3.664,3.664,0,0,1,.984.134V6.818A6.1,6.1,0,0,0,35.591,6.739ZM65.86,11.7a3.339,3.339,0,0,0,1.7.425c1.219,0,2.069-.514,2.069-1.655,0-.939-.458-1.442-1.8-1.7-.492-.123-.682-.257-.682-.526s.2-.447.671-.447a2.641,2.641,0,0,1,1.487.5V7.052a2.953,2.953,0,0,0-1.532-.391c-1.118,0-1.99.526-1.99,1.677,0,.95.492,1.42,1.677,1.633.581.123.794.246.794.559s-.291.458-.727.458a3,3,0,0,1-1.666-.581ZM59.878,9.457a2.728,2.728,0,1,0,2.728-2.728A2.725,2.725,0,0,0,59.878,9.457Zm4.037,0a1.322,1.322,0,1,1-2.617,0,1.322,1.322,0,1,1,2.617,0Z" transform="translate(-6.53 -1.283)" fill="#3c3c3b"/>
        <path id="Path_17756" data-name="Path 17756" d="M8.641,6.517a.237.237,0,0,1-.212,0l-.335-.2a.15.15,0,0,1-.067-.078.189.189,0,0,1-.034-.112V5.734a.215.215,0,0,1,.1-.179L12.13,3.207,6.461.121A.547.547,0,0,0,6,.121L.344,3.2l6.329,3.69a.19.19,0,0,1,.1.179v5.378a.213.213,0,0,1-.112.179l-.335.19a.326.326,0,0,1-.1.022.4.4,0,0,1-.112-.022l-.335-.19a.222.222,0,0,1-.112-.179v-4.8a.133.133,0,0,0-.056-.1L.031,4.3v6.351a.51.51,0,0,0,.224.391L6,14.445a.522.522,0,0,0,.447,0L12.2,11.057a.51.51,0,0,0,.224-.391V4.314Z" transform="translate(-0.009 -0.02)" fill="#4dabd5"/>
      </g>
    </g>
    <g id="Rectangle_1465" data-name="Rectangle 1465" transform="translate(838 2909)" fill="none" stroke="#d1d1d1" stroke-width="1">
      <rect width="94" height="46" rx="10" stroke="none"/>
      <rect x="0.5" y="0.5" width="93" height="45" rx="9.5" fill="none"/>
    </g>
  </g>
</svg>
