<svg id="Layer_1" data-name="Layer 1" xmlns="http://www.w3.org/2000/svg" viewBox="0 0 203.6 42"><defs><style>.cls-1{fill:#ffd200;}.cls-2{fill:#fff;}</style></defs><path class="cls-1" d="M23.4,8.9a1.7,1.7,0,0,1-1.7-1.7L15.5,3.7H11L1.2,9.4a2.4,2.4,0,0,0-1.2,2v7.2H10.1l4.6,7.7H36.1V18.9H30.2l-5.9-4.3H18.2a3.9,3.9,0,0,1-.8,1.4,3,3,0,1,1-2.2-5.2,3,3,0,0,1,2.9,2.1h6.8l5.9,4.3h4.9l.4-.3V11.4a2.3,2.3,0,0,0-1.1-2L19.3.3a2.5,2.5,0,0,0-2.4,0L13.8,2.1h2.1l6.6,3.7a1.4,1.4,0,0,1,.9-.3,1.7,1.7,0,0,1,1.7,1.7,1.3,1.3,0,0,1-.5,1.2A1.3,1.3,0,0,1,23.4,8.9Z"/><path class="cls-1" d="M26.2,34.1a1.6,1.6,0,0,1-1.5-.9H9.4L4.1,25.3H0v4.3a2.4,2.4,0,0,0,1.2,2l15.7,9.1a2.4,2.4,0,0,0,1.2.3,2.7,2.7,0,0,0,1.2-.3L35,31.6a2.3,2.3,0,0,0,1.1-2V27.9H13.8L9.2,20.3H0v3.3H5l5.3,8H24.7a1.6,1.6,0,0,1,1.5-.9,1.6,1.6,0,0,1,1.7,1.7,1.3,1.3,0,0,1-.5,1.2A1.7,1.7,0,0,1,26.2,34.1Z"/><path class="cls-1" d="M14.3,12.9a1.2,1.2,0,0,0-.4,1,1.3,1.3,0,0,0,1.3,1.3h0a1.3,1.3,0,0,0,1-.4,1.1,1.1,0,0,0,.4-.9,1.4,1.4,0,0,0-1.4-1.4A1.1,1.1,0,0,0,14.3,12.9Z"/><path class="cls-2" d="M45,34V8.8H61.5v4.3H49.6V29.8H61.7V34Zm2.2-10.8V19.1H59.7v4.1Z"/><path class="cls-2" d="M65.7,34V7.4h4.5V34Z"/><path class="cls-2" d="M82.8,34.4a9.8,9.8,0,0,1-5.2-1.3A8.5,8.5,0,0,1,74,29.7a9.3,9.3,0,0,1-1.3-5,13.5,13.5,0,0,1,.7-4.1,11,11,0,0,1,2-3.1,9.5,9.5,0,0,1,3.1-2.1,10.1,10.1,0,0,1,3.9-.8,10.4,10.4,0,0,1,3.5.7,9.5,9.5,0,0,1,2.8,2,7.5,7.5,0,0,1,1.8,3,10.6,10.6,0,0,1,.6,3.7v1.5H75.7l-.8-3H87.4l-.6.6v-.8a4,4,0,0,0-.7-1.9A5.4,5.4,0,0,0,84.5,19a4.6,4.6,0,0,0-2.1-.4,6.7,6.7,0,0,0-3,.6,4.4,4.4,0,0,0-1.8,2,7.6,7.6,0,0,0-.6,3.2,6.6,6.6,0,0,0,.8,3.2A5,5,0,0,0,80,29.7a6.7,6.7,0,0,0,3.3.7,6.1,6.1,0,0,0,2.4-.4,9.7,9.7,0,0,0,2.5-1.5l2.2,3A9.1,9.1,0,0,1,88.1,33a8.2,8.2,0,0,1-2.6,1A8.4,8.4,0,0,1,82.8,34.4Z"/><path class="cls-2" d="M102.1,34.4a8.6,8.6,0,0,1-4.8-1.3A9.3,9.3,0,0,1,94,29.6a9.7,9.7,0,0,1-1.3-5.1,9.6,9.6,0,0,1,1.3-5,9,9,0,0,1,8.1-4.8,11.4,11.4,0,0,1,4.6.9,8.9,8.9,0,0,1,3.3,2.7l-2.5,3a5.7,5.7,0,0,0-1.3-1.4l-1.8-1a6.3,6.3,0,0,0-1.9-.3,4.6,4.6,0,0,0-2.8.8,5.8,5.8,0,0,0-2,2.1,7.3,7.3,0,0,0-.7,3,6.2,6.2,0,0,0,.8,3.1,5,5,0,0,0,2,2.1,5.1,5.1,0,0,0,2.8.8,5.7,5.7,0,0,0,1.8-.3,7,7,0,0,0,1.7-.9,6.7,6.7,0,0,0,1.4-1.5l2.5,3a9.1,9.1,0,0,1-3.4,2.6A9.9,9.9,0,0,1,102.1,34.4Z"/><path class="cls-2" d="M110.6,19.2V15.1h12.3v4.1ZM114.3,34V10.2h4.5V34Z"/><path class="cls-2" d="M132.3,34.4a11.4,11.4,0,0,1-4.6-.9,7,7,0,0,1-3.2-2.4l2.9-2.5a6.9,6.9,0,0,0,2.4,1.8,6.6,6.6,0,0,0,2.8.5h1.1a2,2,0,0,0,.8-.4,1.9,1.9,0,0,0,.6-.7,2.4,2.4,0,0,0,.2-.9,1.5,1.5,0,0,0-.7-1.3l-1.1-.6-2-.5a22,22,0,0,1-3.2-1.2,5.7,5.7,0,0,1-2.1-1.5,6,6,0,0,1-.9-1.5,5.8,5.8,0,0,1-.3-1.9,4.4,4.4,0,0,1,.6-2.3,6.5,6.5,0,0,1,1.5-1.8,6.1,6.1,0,0,1,2.3-1.1,7.7,7.7,0,0,1,2.7-.4,13.3,13.3,0,0,1,2.8.3,11.2,11.2,0,0,1,2.5,1.1,6.2,6.2,0,0,1,2,1.6l-2.5,2.7a4.4,4.4,0,0,0-1.5-1.2l-1.6-.8a4.4,4.4,0,0,0-1.5-.3H131l-.9.4-.5.6a1.5,1.5,0,0,0-.2.9,1.9,1.9,0,0,0,.2.8.9.9,0,0,0,.6.6l1.2.6,2,.6a14.6,14.6,0,0,1,3,1.1,5.2,5.2,0,0,1,1.8,1.3,3.1,3.1,0,0,1,1,1.5,5.8,5.8,0,0,1,.3,1.9,4.4,4.4,0,0,1-1,3,6.1,6.1,0,0,1-2.6,2.1A8.3,8.3,0,0,1,132.3,34.4Z"/><path class="cls-2" d="M142.3,34V7.4h4.4V18.9l-.8.5a4.9,4.9,0,0,1,1.4-2.4,7.4,7.4,0,0,1,2.5-1.7,7.2,7.2,0,0,1,2.9-.6,7.7,7.7,0,0,1,3.6.8,5.6,5.6,0,0,1,2.2,2.6,11,11,0,0,1,.8,4.3V34h-4.5V22.8a5.5,5.5,0,0,0-.4-2.4,2.1,2.1,0,0,0-1.2-1.4,3.1,3.1,0,0,0-2-.4,5.2,5.2,0,0,0-1.8.3l-1.4.8a3.8,3.8,0,0,0-.9,1.3,2.9,2.9,0,0,0-.4,1.6V34h-4.4Z"/><path class="cls-2" d="M171.8,34.4a9.6,9.6,0,0,1-8.6-4.8,10.7,10.7,0,0,1-1.3-5.1,10,10,0,0,1,1.3-5,11,11,0,0,1,3.5-3.6,11.4,11.4,0,0,1,10.2,0,11,11,0,0,1,3.5,3.6,10,10,0,0,1,1.2,5,10.7,10.7,0,0,1-1.2,5.1,9.6,9.6,0,0,1-8.6,4.8Zm0-3.9a5.1,5.1,0,0,0,2.8-.8,6.4,6.4,0,0,0,1.9-2.1,5.3,5.3,0,0,0,.6-3.1,5.1,5.1,0,0,0-.6-3,5.5,5.5,0,0,0-1.9-2.1,4.4,4.4,0,0,0-2.8-.8,4.8,4.8,0,0,0-2.8.8,5.5,5.5,0,0,0-1.9,2.1,6,6,0,0,0-.7,3,6.2,6.2,0,0,0,.7,3.1,6.4,6.4,0,0,0,1.9,2.1A5.7,5.7,0,0,0,171.8,30.5Z"/><path class="cls-2" d="M184.5,42V15.1h4.4v4.3l-.8-.3a3.8,3.8,0,0,1,1.2-2.1,9.2,9.2,0,0,1,2.5-1.7,8,8,0,0,1,3-.6,8.5,8.5,0,0,1,4.5,1.3,8.1,8.1,0,0,1,3.1,3.5,10,10,0,0,1,1.1,5,10.6,10.6,0,0,1-1.1,5.1,8.8,8.8,0,0,1-3.1,3.5,8.4,8.4,0,0,1-4.4,1.3,8.8,8.8,0,0,1-3.2-.7,7.8,7.8,0,0,1-2.6-1.7,4.6,4.6,0,0,1-1.3-2.2l1.1-.5V42Zm9.6-11.6a5,5,0,0,0,2.7-.7,5.5,5.5,0,0,0,1.9-2.1,7.5,7.5,0,0,0,.6-3.1,7.3,7.3,0,0,0-.6-3,5.5,5.5,0,0,0-1.9-2.1,5,5,0,0,0-2.7-.7,4.5,4.5,0,0,0-2.7.7,5.5,5.5,0,0,0-1.9,2.1,6,6,0,0,0-.7,3,6.2,6.2,0,0,0,.7,3.1,5.5,5.5,0,0,0,1.9,2.1A4.5,4.5,0,0,0,194.1,30.4Z"/></svg>